# xmcd
#
# Track frame offsets:
#	150
#	19375
#	39180
#	55110
#	64464
#	74670
#	99716
#	120764
#	138055
#	163606
#	184367
#	195195
#	211434
#	235205
#	252348
#	265188
#	282588
#	296981
#	326671
#
# Disc length: 4580 seconds
#
# Revision: 2
# Processed by: cddbd v1.5.2PL0 Copyright (c) Steve Scherf et al.
# Submitted via: audiograbber 1.83.01
#
DISCID=2611e213
DTITLE=Los Planetas - Principios básicos de Astronomia
DYEAR=2009
DGENRE=Indie
TTITLE0=De Viaje
TTITLE1=Rey Sombra
TTITLE2=Jose y Yo
TTITLE3=David y Claudia
TTITLE4=Himno Generacional #83
TTITLE5=Segundo Premio
TTITLE6=Santos que yo te Pinté
TTITLE7=Un buen Día
TTITLE8=San Juan de la Cruz
TTITLE9=Corrientes circulares en el Tiempo
TTITLE10=Pesadilla en el parque de Atracciones
TTITLE11=Nunca me entero de Anda
TTITLE12=Devuélveme la Pasta
TTITLE13=Canción del fin del Mundo
TTITLE14=Deberes y Privilegios
TTITLE15=Alegrias del Incencio
TTITLE16=Reunión en la Cumbre
TTITLE17=Ya no me asomo a la Reja
TTITLE18=Soy un pobre Granaino
EXTD=crg
EXTT0=
EXTT1=
EXTT2=
EXTT3=
EXTT4=
EXTT5=
EXTT6=
EXTT7=
EXTT8=
EXTT9=
EXTT10=
EXTT11=
EXTT12=
EXTT13=
EXTT14=
EXTT15=
EXTT16=
EXTT17=
EXTT18=
PLAYORDER=
